<?xml version="1.0" encoding="UTF-8" standalone="no"?><!DOCTYPE svg PUBLIC "-//W3C//DTD SVG 1.1//EN" "http://www.w3.org/Graphics/SVG/1.1/DTD/svg11.dtd"><!-- Generated by graphviz version 2.40.1 (20161225.0304)
 --><!-- Title: MyGraph Pages: 1 --><svg xmlns="http://www.w3.org/2000/svg" xmlns:xlink="http://www.w3.org/1999/xlink" width="314pt" height="404pt" viewBox="0.00 0.00 314.00 404.00">
<g id="graph0" class="graph" transform="scale(1 1) rotate(0) translate(4 400)">
<title>MyGraph</title>
<polygon fill="#ffffff" stroke="transparent" points="-4,4 -4,-400 310,-400 310,4 -4,4"/>
<!-- a -->
<g id="node1" class="node">
<title>a</title>
<ellipse fill="none" stroke="#000000" cx="171" cy="-378" rx="27" ry="18"/>
<text text-anchor="middle" x="171" y="-373.8" font-family="Times,serif" font-size="14.00" fill="#000000">a</text>
</g>
<!-- b -->
<g id="node2" class="node">
<title>b</title>
<ellipse fill="none" stroke="#000000" cx="63" cy="-306" rx="27" ry="18"/>
<text text-anchor="middle" x="63" y="-301.8" font-family="Times,serif" font-size="14.00" fill="#000000">b</text>
</g>
<!-- a&#45;&#45;b -->
<g id="edge1" class="edge">
<title>a--b</title>
<path fill="none" stroke="#000000" d="M151.6918,-365.1278C132.0337,-352.0225 101.7386,-331.8257 82.1411,-318.7607"/>
</g>
<!-- c -->
<g id="node3" class="node">
<title>c</title>
<ellipse fill="none" stroke="#000000" cx="135" cy="-306" rx="27" ry="18"/>
<text text-anchor="middle" x="135" y="-301.8" font-family="Times,serif" font-size="14.00" fill="#000000">c</text>
</g>
<!-- a&#45;&#45;c -->
<g id="edge2" class="edge">
<title>a--c</title>
<path fill="none" stroke="#000000" d="M162.2854,-360.5708C156.6253,-349.2506 149.2784,-334.5568 143.6343,-323.2687"/>
</g>
<!-- d -->
<g id="node4" class="node">
<title>d</title>
<ellipse fill="none" stroke="#000000" cx="207" cy="-306" rx="27" ry="18"/>
<text text-anchor="middle" x="207" y="-301.8" font-family="Times,serif" font-size="14.00" fill="#000000">d</text>
</g>
<!-- a&#45;&#45;d -->
<g id="edge3" class="edge">
<title>a--d</title>
<path fill="none" stroke="#000000" d="M179.7146,-360.5708C185.3747,-349.2506 192.7216,-334.5568 198.3657,-323.2687"/>
</g>
<!-- g -->
<g id="node5" class="node">
<title>g</title>
<ellipse fill="none" stroke="#000000" cx="279" cy="-306" rx="27" ry="18"/>
<text text-anchor="middle" x="279" y="-301.8" font-family="Times,serif" font-size="14.00" fill="#000000">g</text>
</g>
<!-- a&#45;&#45;g -->
<g id="edge4" class="edge">
<title>a--g</title>
<path fill="none" stroke="#000000" d="M190.3082,-365.1278C209.9663,-352.0225 240.2614,-331.8257 259.8589,-318.7607"/>
</g>
<!-- e -->
<g id="node6" class="node">
<title>e</title>
<ellipse fill="none" stroke="#000000" cx="99" cy="-234" rx="27" ry="18"/>
<text text-anchor="middle" x="99" y="-229.8" font-family="Times,serif" font-size="14.00" fill="#000000">e</text>
</g>
<!-- c&#45;&#45;e -->
<g id="edge5" class="edge">
<title>c--e</title>
<path fill="none" stroke="#000000" d="M126.2854,-288.5708C120.6253,-277.2506 113.2784,-262.5568 107.6343,-251.2687"/>
</g>
<!-- f -->
<g id="node7" class="node">
<title>f</title>
<ellipse fill="none" stroke="#000000" cx="171" cy="-234" rx="27" ry="18"/>
<text text-anchor="middle" x="171" y="-229.8" font-family="Times,serif" font-size="14.00" fill="#000000">f</text>
</g>
<!-- c&#45;&#45;f -->
<g id="edge6" class="edge">
<title>c--f</title>
<path fill="none" stroke="#000000" d="M143.7146,-288.5708C149.3747,-277.2506 156.7216,-262.5568 162.3657,-251.2687"/>
</g>
<!-- h -->
<g id="node8" class="node">
<title>h</title>
<ellipse fill="none" stroke="#000000" cx="27" cy="-162" rx="27" ry="18"/>
<text text-anchor="middle" x="27" y="-157.8" font-family="Times,serif" font-size="14.00" fill="#000000">h</text>
</g>
<!-- e&#45;&#45;h -->
<g id="edge7" class="edge">
<title>e--h</title>
<path fill="none" stroke="#000000" d="M83.7307,-218.7307C71.512,-206.512 54.4602,-189.4602 42.2473,-177.2473"/>
</g>
<!-- i -->
<g id="node9" class="node">
<title>i</title>
<ellipse fill="none" stroke="#000000" cx="99" cy="-162" rx="27" ry="18"/>
<text text-anchor="middle" x="99" y="-157.8" font-family="Times,serif" font-size="14.00" fill="#000000">i</text>
</g>
<!-- e&#45;&#45;i -->
<g id="edge8" class="edge">
<title>e--i</title>
<path fill="none" stroke="#000000" d="M99,-215.8314C99,-205 99,-191.2876 99,-180.4133"/>
</g>
<!-- j -->
<g id="node10" class="node">
<title>j</title>
<ellipse fill="none" stroke="#000000" cx="171" cy="-162" rx="27" ry="18"/>
<text text-anchor="middle" x="171" y="-157.8" font-family="Times,serif" font-size="14.00" fill="#000000">j</text>
</g>
<!-- f&#45;&#45;j -->
<g id="edge9" class="edge">
<title>f--j</title>
<path fill="none" stroke="#000000" d="M171,-215.8314C171,-205 171,-191.2876 171,-180.4133"/>
</g>
<!-- r -->
<g id="node11" class="node">
<title>r</title>
<ellipse fill="none" stroke="#000000" cx="99" cy="-90" rx="27" ry="18"/>
<text text-anchor="middle" x="99" y="-85.8" font-family="Times,serif" font-size="14.00" fill="#000000">r</text>
</g>
<!-- j&#45;&#45;r -->
<g id="edge10" class="edge">
<title>j--r</title>
<path fill="none" stroke="#000000" d="M155.7307,-146.7307C143.512,-134.512 126.4602,-117.4602 114.2473,-105.2473"/>
</g>
<!-- s -->
<g id="node12" class="node">
<title>s</title>
<ellipse fill="none" stroke="#000000" cx="171" cy="-90" rx="27" ry="18"/>
<text text-anchor="middle" x="171" y="-85.8" font-family="Times,serif" font-size="14.00" fill="#000000">s</text>
</g>
<!-- j&#45;&#45;s -->
<g id="edge11" class="edge">
<title>j--s</title>
<path fill="none" stroke="#000000" d="M171,-143.8314C171,-133 171,-119.2876 171,-108.4133"/>
</g>
<!-- t -->
<g id="node13" class="node">
<title>t</title>
<ellipse fill="none" stroke="#000000" cx="243" cy="-90" rx="27" ry="18"/>
<text text-anchor="middle" x="243" y="-85.8" font-family="Times,serif" font-size="14.00" fill="#000000">t</text>
</g>
<!-- j&#45;&#45;t -->
<g id="edge12" class="edge">
<title>j--t</title>
<path fill="none" stroke="#000000" d="M186.2693,-146.7307C198.488,-134.512 215.5398,-117.4602 227.7527,-105.2473"/>
</g>
<!-- z -->
<g id="node14" class="node">
<title>z</title>
<ellipse fill="none" stroke="#000000" cx="207" cy="-18" rx="27" ry="18"/>
<text text-anchor="middle" x="207" y="-13.8" font-family="Times,serif" font-size="14.00" fill="#000000">z</text>
</g>
<!-- t&#45;&#45;z -->
<g id="edge13" class="edge">
<title>t--z</title>
<path fill="none" stroke="#000000" d="M234.2854,-72.5708C228.6253,-61.2506 221.2784,-46.5568 215.6343,-35.2687"/>
</g>
<!-- k -->
<g id="node15" class="node">
<title>k</title>
<ellipse fill="none" stroke="#000000" cx="279" cy="-18" rx="27" ry="18"/>
<text text-anchor="middle" x="279" y="-13.8" font-family="Times,serif" font-size="14.00" fill="#000000">k</text>
</g>
<!-- t&#45;&#45;k -->
<g id="edge14" class="edge">
<title>t--k</title>
<path fill="none" stroke="#000000" d="M251.7146,-72.5708C257.3747,-61.2506 264.7216,-46.5568 270.3657,-35.2687"/>
</g>
</g>
</svg>