<?xml version="1.0" encoding="UTF-8" standalone="no"?><!DOCTYPE svg PUBLIC "-//W3C//DTD SVG 1.1//EN" "http://www.w3.org/Graphics/SVG/1.1/DTD/svg11.dtd"><!-- Generated by graphviz version 2.40.1 (20161225.0304)
 --><!-- Title: MyGraph Pages: 1 --><svg xmlns="http://www.w3.org/2000/svg" xmlns:xlink="http://www.w3.org/1999/xlink" width="566pt" height="476pt" viewBox="0.00 0.00 566.00 476.00">
<g id="graph0" class="graph" transform="scale(1 1) rotate(0) translate(4 472)">
<title>MyGraph</title>
<polygon fill="#ffffff" stroke="transparent" points="-4,4 -4,-472 562,-472 562,4 -4,4"/>
<!-- document -->
<g id="node1" class="node">
<title>document</title>
<path fill="none" stroke="#000000" d="M266.7107,-468C266.7107,-468 219.2893,-468 219.2893,-468 213.2893,-468 207.2893,-462 207.2893,-456 207.2893,-456 207.2893,-444 207.2893,-444 207.2893,-438 213.2893,-432 219.2893,-432 219.2893,-432 266.7107,-432 266.7107,-432 272.7107,-432 278.7107,-438 278.7107,-444 278.7107,-444 278.7107,-456 278.7107,-456 278.7107,-462 272.7107,-468 266.7107,-468"/>
<text text-anchor="middle" x="243" y="-445.8" font-family="Times,serif" font-size="14.00" fill="#000000">document</text>
</g>
<!-- html -->
<g id="node2" class="node">
<title>html</title>
<path fill="none" stroke="#000000" d="M258,-396C258,-396 228,-396 228,-396 222,-396 216,-390 216,-384 216,-384 216,-372 216,-372 216,-366 222,-360 228,-360 228,-360 258,-360 258,-360 264,-360 270,-366 270,-372 270,-372 270,-384 270,-384 270,-390 264,-396 258,-396"/>
<text text-anchor="middle" x="243" y="-373.8" font-family="Times,serif" font-size="14.00" fill="#000000">html</text>
</g>
<!-- document&#45;&#45;html -->
<g id="edge1" class="edge">
<title>document--html</title>
<path fill="none" stroke="#000000" d="M243,-431.8314C243,-421 243,-407.2876 243,-396.4133"/>
</g>
<!-- head -->
<g id="node3" class="node">
<title>head</title>
<path fill="none" stroke="#000000" d="M186,-324C186,-324 156,-324 156,-324 150,-324 144,-318 144,-312 144,-312 144,-300 144,-300 144,-294 150,-288 156,-288 156,-288 186,-288 186,-288 192,-288 198,-294 198,-300 198,-300 198,-312 198,-312 198,-318 192,-324 186,-324"/>
<text text-anchor="middle" x="171" y="-301.8" font-family="Times,serif" font-size="14.00" fill="#000000">head</text>
</g>
<!-- html&#45;&#45;head -->
<g id="edge2" class="edge">
<title>html--head</title>
<path fill="none" stroke="#000000" d="M224.8314,-359.8314C214,-349 200.2876,-335.2876 189.4133,-324.4133"/>
</g>
<!-- body -->
<g id="node8" class="node">
<title>body</title>
<path fill="none" stroke="#000000" d="M366,-324C366,-324 336,-324 336,-324 330,-324 324,-318 324,-312 324,-312 324,-300 324,-300 324,-294 330,-288 336,-288 336,-288 366,-288 366,-288 372,-288 378,-294 378,-300 378,-300 378,-312 378,-312 378,-318 372,-324 366,-324"/>
<text text-anchor="middle" x="351" y="-301.8" font-family="Times,serif" font-size="14.00" fill="#000000">body</text>
</g>
<!-- html&#45;&#45;body -->
<g id="edge7" class="edge">
<title>html--body</title>
<path fill="none" stroke="#000000" d="M270.253,-359.8314C286.6249,-348.9167 307.3853,-335.0764 323.7558,-324.1628"/>
</g>
<!-- meta -->
<g id="node4" class="node">
<title>meta</title>
<path fill="none" stroke="#000000" d="M42,-252C42,-252 12,-252 12,-252 6,-252 0,-246 0,-240 0,-240 0,-228 0,-228 0,-222 6,-216 12,-216 12,-216 42,-216 42,-216 48,-216 54,-222 54,-228 54,-228 54,-240 54,-240 54,-246 48,-252 42,-252"/>
<text text-anchor="middle" x="27" y="-229.8" font-family="Times,serif" font-size="14.00" fill="#000000">meta</text>
</g>
<!-- head&#45;&#45;meta -->
<g id="edge3" class="edge">
<title>head--meta</title>
<path fill="none" stroke="#000000" d="M143.9147,-292.4574C118.3327,-279.6664 80.1554,-260.5777 54.4534,-247.7267"/>
</g>
<!-- title -->
<g id="node5" class="node">
<title>title</title>
<path fill="none" stroke="#000000" d="M114,-252C114,-252 84,-252 84,-252 78,-252 72,-246 72,-240 72,-240 72,-228 72,-228 72,-222 78,-216 84,-216 84,-216 114,-216 114,-216 120,-216 126,-222 126,-228 126,-228 126,-240 126,-240 126,-246 120,-252 114,-252"/>
<text text-anchor="middle" x="99" y="-229.8" font-family="Times,serif" font-size="14.00" fill="#000000">title</text>
</g>
<!-- head&#45;&#45;title -->
<g id="edge4" class="edge">
<title>head--title</title>
<path fill="none" stroke="#000000" d="M152.8314,-287.8314C142,-277 128.2876,-263.2876 117.4133,-252.4133"/>
</g>
<!-- style -->
<g id="node6" class="node">
<title>style</title>
<path fill="none" stroke="#000000" d="M186,-252C186,-252 156,-252 156,-252 150,-252 144,-246 144,-240 144,-240 144,-228 144,-228 144,-222 150,-216 156,-216 156,-216 186,-216 186,-216 192,-216 198,-222 198,-228 198,-228 198,-240 198,-240 198,-246 192,-252 186,-252"/>
<text text-anchor="middle" x="171" y="-229.8" font-family="Times,serif" font-size="14.00" fill="#000000">style</text>
</g>
<!-- head&#45;&#45;style -->
<g id="edge5" class="edge">
<title>head--style</title>
<path fill="none" stroke="#000000" d="M171,-287.8314C171,-277 171,-263.2876 171,-252.4133"/>
</g>
<!-- script -->
<g id="node7" class="node">
<title>script</title>
<path fill="none" stroke="#000000" d="M258,-252C258,-252 228,-252 228,-252 222,-252 216,-246 216,-240 216,-240 216,-228 216,-228 216,-222 222,-216 228,-216 228,-216 258,-216 258,-216 264,-216 270,-222 270,-228 270,-228 270,-240 270,-240 270,-246 264,-252 258,-252"/>
<text text-anchor="middle" x="243" y="-229.8" font-family="Times,serif" font-size="14.00" fill="#000000">script</text>
</g>
<!-- head&#45;&#45;script -->
<g id="edge6" class="edge">
<title>head--script</title>
<path fill="none" stroke="#000000" d="M189.1686,-287.8314C200,-277 213.7124,-263.2876 224.5867,-252.4133"/>
</g>
<!-- header -->
<g id="node9" class="node">
<title>header</title>
<path fill="none" stroke="#000000" d="M330,-252C330,-252 300,-252 300,-252 294,-252 288,-246 288,-240 288,-240 288,-228 288,-228 288,-222 294,-216 300,-216 300,-216 330,-216 330,-216 336,-216 342,-222 342,-228 342,-228 342,-240 342,-240 342,-246 336,-252 330,-252"/>
<text text-anchor="middle" x="315" y="-229.8" font-family="Times,serif" font-size="14.00" fill="#000000">header</text>
</g>
<!-- body&#45;&#45;header -->
<g id="edge8" class="edge">
<title>body--header</title>
<path fill="none" stroke="#000000" d="M341.9157,-287.8314C336.5,-277 329.6438,-263.2876 324.2066,-252.4133"/>
</g>
<!-- p -->
<g id="node11" class="node">
<title>p</title>
<path fill="none" stroke="#000000" d="M402,-252C402,-252 372,-252 372,-252 366,-252 360,-246 360,-240 360,-240 360,-228 360,-228 360,-222 366,-216 372,-216 372,-216 402,-216 402,-216 408,-216 414,-222 414,-228 414,-228 414,-240 414,-240 414,-246 408,-252 402,-252"/>
<text text-anchor="middle" x="387" y="-229.8" font-family="Times,serif" font-size="14.00" fill="#000000">p</text>
</g>
<!-- body&#45;&#45;p -->
<g id="edge10" class="edge">
<title>body--p</title>
<path fill="none" stroke="#000000" d="M360.0843,-287.8314C365.5,-277 372.3562,-263.2876 377.7934,-252.4133"/>
</g>
<!-- nav -->
<g id="node13" class="node">
<title>nav</title>
<path fill="none" stroke="#000000" d="M474,-252C474,-252 444,-252 444,-252 438,-252 432,-246 432,-240 432,-240 432,-228 432,-228 432,-222 438,-216 444,-216 444,-216 474,-216 474,-216 480,-216 486,-222 486,-228 486,-228 486,-240 486,-240 486,-246 480,-252 474,-252"/>
<text text-anchor="middle" x="459" y="-229.8" font-family="Times,serif" font-size="14.00" fill="#000000">nav</text>
</g>
<!-- body&#45;&#45;nav -->
<g id="edge12" class="edge">
<title>body--nav</title>
<path fill="none" stroke="#000000" d="M378.253,-287.8314C394.6249,-276.9167 415.3853,-263.0764 431.7558,-252.1628"/>
</g>
<!-- h1 -->
<g id="node10" class="node">
<title>h1</title>
<path fill="none" stroke="#000000" d="M330,-180C330,-180 300,-180 300,-180 294,-180 288,-174 288,-168 288,-168 288,-156 288,-156 288,-150 294,-144 300,-144 300,-144 330,-144 330,-144 336,-144 342,-150 342,-156 342,-156 342,-168 342,-168 342,-174 336,-180 330,-180"/>
<text text-anchor="middle" x="315" y="-157.8" font-family="Times,serif" font-size="14.00" fill="#000000">h1</text>
</g>
<!-- header&#45;&#45;h1 -->
<g id="edge9" class="edge">
<title>header--h1</title>
<path fill="none" stroke="#000000" d="M315,-215.8314C315,-205 315,-191.2876 315,-180.4133"/>
</g>
<!-- span -->
<g id="node12" class="node">
<title>span</title>
<path fill="none" stroke="#000000" d="M402,-180C402,-180 372,-180 372,-180 366,-180 360,-174 360,-168 360,-168 360,-156 360,-156 360,-150 366,-144 372,-144 372,-144 402,-144 402,-144 408,-144 414,-150 414,-156 414,-156 414,-168 414,-168 414,-174 408,-180 402,-180"/>
<text text-anchor="middle" x="387" y="-157.8" font-family="Times,serif" font-size="14.00" fill="#000000">span</text>
</g>
<!-- p&#45;&#45;span -->
<g id="edge11" class="edge">
<title>p--span</title>
<path fill="none" stroke="#000000" d="M387,-215.8314C387,-205 387,-191.2876 387,-180.4133"/>
</g>
<!-- ul -->
<g id="node14" class="node">
<title>ul</title>
<path fill="none" stroke="#000000" d="M474,-180C474,-180 444,-180 444,-180 438,-180 432,-174 432,-168 432,-168 432,-156 432,-156 432,-150 438,-144 444,-144 444,-144 474,-144 474,-144 480,-144 486,-150 486,-156 486,-156 486,-168 486,-168 486,-174 480,-180 474,-180"/>
<text text-anchor="middle" x="459" y="-157.8" font-family="Times,serif" font-size="14.00" fill="#000000">ul</text>
</g>
<!-- nav&#45;&#45;ul -->
<g id="edge13" class="edge">
<title>nav--ul</title>
<path fill="none" stroke="#000000" d="M459,-215.8314C459,-205 459,-191.2876 459,-180.4133"/>
</g>
<!-- li1 -->
<g id="node15" class="node">
<title>li1</title>
<path fill="none" stroke="#000000" d="M402,-108C402,-108 372,-108 372,-108 366,-108 360,-102 360,-96 360,-96 360,-84 360,-84 360,-78 366,-72 372,-72 372,-72 402,-72 402,-72 408,-72 414,-78 414,-84 414,-84 414,-96 414,-96 414,-102 408,-108 402,-108"/>
<text text-anchor="middle" x="387" y="-85.8" font-family="Times,serif" font-size="14.00" fill="#000000">li</text>
</g>
<!-- ul&#45;&#45;li1 -->
<g id="edge14" class="edge">
<title>ul--li1</title>
<path fill="none" stroke="#000000" d="M440.8314,-143.8314C430,-133 416.2876,-119.2876 405.4133,-108.4133"/>
</g>
<!-- li2 -->
<g id="node17" class="node">
<title>li2</title>
<path fill="none" stroke="#000000" d="M474,-108C474,-108 444,-108 444,-108 438,-108 432,-102 432,-96 432,-96 432,-84 432,-84 432,-78 438,-72 444,-72 444,-72 474,-72 474,-72 480,-72 486,-78 486,-84 486,-84 486,-96 486,-96 486,-102 480,-108 474,-108"/>
<text text-anchor="middle" x="459" y="-85.8" font-family="Times,serif" font-size="14.00" fill="#000000">li</text>
</g>
<!-- ul&#45;&#45;li2 -->
<g id="edge16" class="edge">
<title>ul--li2</title>
<path fill="none" stroke="#000000" d="M459,-143.8314C459,-133 459,-119.2876 459,-108.4133"/>
</g>
<!-- li3 -->
<g id="node19" class="node">
<title>li3</title>
<path fill="none" stroke="#000000" d="M546,-108C546,-108 516,-108 516,-108 510,-108 504,-102 504,-96 504,-96 504,-84 504,-84 504,-78 510,-72 516,-72 516,-72 546,-72 546,-72 552,-72 558,-78 558,-84 558,-84 558,-96 558,-96 558,-102 552,-108 546,-108"/>
<text text-anchor="middle" x="531" y="-85.8" font-family="Times,serif" font-size="14.00" fill="#000000">li</text>
</g>
<!-- ul&#45;&#45;li3 -->
<g id="edge18" class="edge">
<title>ul--li3</title>
<path fill="none" stroke="#000000" d="M477.1686,-143.8314C488,-133 501.7124,-119.2876 512.5867,-108.4133"/>
</g>
<!-- a_li1 -->
<g id="node16" class="node">
<title>a_li1</title>
<path fill="none" stroke="#000000" d="M402,-36C402,-36 372,-36 372,-36 366,-36 360,-30 360,-24 360,-24 360,-12 360,-12 360,-6 366,0 372,0 372,0 402,0 402,0 408,0 414,-6 414,-12 414,-12 414,-24 414,-24 414,-30 408,-36 402,-36"/>
<text text-anchor="middle" x="387" y="-13.8" font-family="Times,serif" font-size="14.00" fill="#000000">a</text>
</g>
<!-- li1&#45;&#45;a_li1 -->
<g id="edge15" class="edge">
<title>li1--a_li1</title>
<path fill="none" stroke="#000000" d="M387,-71.8314C387,-61 387,-47.2876 387,-36.4133"/>
</g>
<!-- a_li2 -->
<g id="node18" class="node">
<title>a_li2</title>
<path fill="none" stroke="#000000" d="M474,-36C474,-36 444,-36 444,-36 438,-36 432,-30 432,-24 432,-24 432,-12 432,-12 432,-6 438,0 444,0 444,0 474,0 474,0 480,0 486,-6 486,-12 486,-12 486,-24 486,-24 486,-30 480,-36 474,-36"/>
<text text-anchor="middle" x="459" y="-13.8" font-family="Times,serif" font-size="14.00" fill="#000000">a</text>
</g>
<!-- li2&#45;&#45;a_li2 -->
<g id="edge17" class="edge">
<title>li2--a_li2</title>
<path fill="none" stroke="#000000" d="M459,-71.8314C459,-61 459,-47.2876 459,-36.4133"/>
</g>
<!-- a_li3 -->
<g id="node20" class="node">
<title>a_li3</title>
<path fill="none" stroke="#000000" d="M546,-36C546,-36 516,-36 516,-36 510,-36 504,-30 504,-24 504,-24 504,-12 504,-12 504,-6 510,0 516,0 516,0 546,0 546,0 552,0 558,-6 558,-12 558,-12 558,-24 558,-24 558,-30 552,-36 546,-36"/>
<text text-anchor="middle" x="531" y="-13.8" font-family="Times,serif" font-size="14.00" fill="#000000">a</text>
</g>
<!-- li3&#45;&#45;a_li3 -->
<g id="edge19" class="edge">
<title>li3--a_li3</title>
<path fill="none" stroke="#000000" d="M531,-71.8314C531,-61 531,-47.2876 531,-36.4133"/>
</g>
</g>
</svg>