<?xml version="1.0" encoding="UTF-8" standalone="no"?><!DOCTYPE svg PUBLIC "-//W3C//DTD SVG 1.1//EN" "http://www.w3.org/Graphics/SVG/1.1/DTD/svg11.dtd"><!-- Generated by graphviz version 2.40.1 (20161225.0304)
 --><!-- Title: MyGraph Pages: 1 --><svg xmlns="http://www.w3.org/2000/svg" xmlns:xlink="http://www.w3.org/1999/xlink" width="350pt" height="548pt" viewBox="0.00 0.00 350.00 548.00">
<g id="graph0" class="graph" transform="scale(1 1) rotate(0) translate(4 544)">
<title>MyGraph</title>
<polygon fill="#ffffff" stroke="transparent" points="-4,4 -4,-544 346,-544 346,4 -4,4"/>
<!-- a -->
<g id="node1" class="node">
<title>a</title>
<ellipse fill="#98f5ff" stroke="#000000" cx="279" cy="-522" rx="27" ry="18"/>
<text text-anchor="middle" x="279" y="-517.8" font-family="Times,serif" font-size="14.00" fill="#000000">34</text>
</g>
<!-- b -->
<g id="node2" class="node">
<title>b</title>
<ellipse fill="#7fffd4" stroke="#000000" cx="243" cy="-450" rx="27" ry="18"/>
<text text-anchor="middle" x="243" y="-445.8" font-family="Times,serif" font-size="14.00" fill="#000000">21</text>
</g>
<!-- a&#45;&#45;b -->
<g id="edge1" class="edge">
<title>a--b</title>
<path fill="none" stroke="#000000" d="M270.2854,-504.5708C264.6253,-493.2506 257.2784,-478.5568 251.6343,-467.2687"/>
</g>
<!-- c -->
<g id="node3" class="node">
<title>c</title>
<ellipse fill="#7fffd4" stroke="#000000" cx="315" cy="-450" rx="27" ry="18"/>
<text text-anchor="middle" x="315" y="-445.8" font-family="Times,serif" font-size="14.00" fill="#000000">13</text>
</g>
<!-- a&#45;&#45;c -->
<g id="edge2" class="edge">
<title>a--c</title>
<path fill="none" stroke="#000000" d="M287.7146,-504.5708C293.3747,-493.2506 300.7216,-478.5568 306.3657,-467.2687"/>
</g>
<!-- d -->
<g id="node4" class="node">
<title>d</title>
<ellipse fill="#7fffd4" stroke="#000000" cx="207" cy="-378" rx="27" ry="18"/>
<text text-anchor="middle" x="207" y="-373.8" font-family="Times,serif" font-size="14.00" fill="#000000">13</text>
</g>
<!-- b&#45;&#45;d -->
<g id="edge3" class="edge">
<title>b--d</title>
<path fill="none" stroke="#000000" d="M234.2854,-432.5708C228.6253,-421.2506 221.2784,-406.5568 215.6343,-395.2687"/>
</g>
<!-- e -->
<g id="node5" class="node">
<title>e</title>
<ellipse fill="#98f5ff" stroke="#000000" cx="279" cy="-378" rx="27" ry="18"/>
<text text-anchor="middle" x="279" y="-373.8" font-family="Times,serif" font-size="14.00" fill="#000000">8</text>
</g>
<!-- b&#45;&#45;e -->
<g id="edge4" class="edge">
<title>b--e</title>
<path fill="none" stroke="#000000" d="M251.7146,-432.5708C257.3747,-421.2506 264.7216,-406.5568 270.3657,-395.2687"/>
</g>
<!-- f -->
<g id="node6" class="node">
<title>f</title>
<ellipse fill="#98f5ff" stroke="#000000" cx="171" cy="-306" rx="27" ry="18"/>
<text text-anchor="middle" x="171" y="-301.8" font-family="Times,serif" font-size="14.00" fill="#000000">8</text>
</g>
<!-- d&#45;&#45;f -->
<g id="edge5" class="edge">
<title>d--f</title>
<path fill="none" stroke="#000000" d="M198.2854,-360.5708C192.6253,-349.2506 185.2784,-334.5568 179.6343,-323.2687"/>
</g>
<!-- g -->
<g id="node7" class="node">
<title>g</title>
<ellipse fill="#7fffd4" stroke="#000000" cx="243" cy="-306" rx="27" ry="18"/>
<text text-anchor="middle" x="243" y="-301.8" font-family="Times,serif" font-size="14.00" fill="#000000">5</text>
</g>
<!-- d&#45;&#45;g -->
<g id="edge6" class="edge">
<title>d--g</title>
<path fill="none" stroke="#000000" d="M215.7146,-360.5708C221.3747,-349.2506 228.7216,-334.5568 234.3657,-323.2687"/>
</g>
<!-- h -->
<g id="node8" class="node">
<title>h</title>
<ellipse fill="#7fffd4" stroke="#000000" cx="135" cy="-234" rx="27" ry="18"/>
<text text-anchor="middle" x="135" y="-229.8" font-family="Times,serif" font-size="14.00" fill="#000000">5</text>
</g>
<!-- f&#45;&#45;h -->
<g id="edge7" class="edge">
<title>f--h</title>
<path fill="none" stroke="#000000" d="M162.2854,-288.5708C156.6253,-277.2506 149.2784,-262.5568 143.6343,-251.2687"/>
</g>
<!-- i -->
<g id="node9" class="node">
<title>i</title>
<ellipse fill="#7fffd4" stroke="#000000" cx="207" cy="-234" rx="27" ry="18"/>
<text text-anchor="middle" x="207" y="-229.8" font-family="Times,serif" font-size="14.00" fill="#000000">3</text>
</g>
<!-- f&#45;&#45;i -->
<g id="edge8" class="edge">
<title>f--i</title>
<path fill="none" stroke="#000000" d="M179.7146,-288.5708C185.3747,-277.2506 192.7216,-262.5568 198.3657,-251.2687"/>
</g>
<!-- j -->
<g id="node10" class="node">
<title>j</title>
<ellipse fill="#7fffd4" stroke="#000000" cx="99" cy="-162" rx="27" ry="18"/>
<text text-anchor="middle" x="99" y="-157.8" font-family="Times,serif" font-size="14.00" fill="#000000">3</text>
</g>
<!-- h&#45;&#45;j -->
<g id="edge9" class="edge">
<title>h--j</title>
<path fill="none" stroke="#000000" d="M126.2854,-216.5708C120.6253,-205.2506 113.2784,-190.5568 107.6343,-179.2687"/>
</g>
<!-- k -->
<g id="node11" class="node">
<title>k</title>
<ellipse fill="#98f5ff" stroke="#000000" cx="171" cy="-162" rx="27" ry="18"/>
<text text-anchor="middle" x="171" y="-157.8" font-family="Times,serif" font-size="14.00" fill="#000000">2</text>
</g>
<!-- h&#45;&#45;k -->
<g id="edge10" class="edge">
<title>h--k</title>
<path fill="none" stroke="#000000" d="M143.7146,-216.5708C149.3747,-205.2506 156.7216,-190.5568 162.3657,-179.2687"/>
</g>
<!-- l -->
<g id="node12" class="node">
<title>l</title>
<ellipse fill="#98f5ff" stroke="#000000" cx="63" cy="-90" rx="27" ry="18"/>
<text text-anchor="middle" x="63" y="-85.8" font-family="Times,serif" font-size="14.00" fill="#000000">2</text>
</g>
<!-- j&#45;&#45;l -->
<g id="edge11" class="edge">
<title>j--l</title>
<path fill="none" stroke="#000000" d="M90.2854,-144.5708C84.6253,-133.2506 77.2784,-118.5568 71.6343,-107.2687"/>
</g>
<!-- m -->
<g id="node13" class="node">
<title>m</title>
<ellipse fill="#7fffd4" stroke="#000000" cx="135" cy="-90" rx="27" ry="18"/>
<text text-anchor="middle" x="135" y="-85.8" font-family="Times,serif" font-size="14.00" fill="#000000">1</text>
</g>
<!-- j&#45;&#45;m -->
<g id="edge12" class="edge">
<title>j--m</title>
<path fill="none" stroke="#000000" d="M107.7146,-144.5708C113.3747,-133.2506 120.7216,-118.5568 126.3657,-107.2687"/>
</g>
<!-- n -->
<g id="node14" class="node">
<title>n</title>
<ellipse fill="#7fffd4" stroke="#000000" cx="27" cy="-18" rx="27" ry="18"/>
<text text-anchor="middle" x="27" y="-13.8" font-family="Times,serif" font-size="14.00" fill="#000000">1</text>
</g>
<!-- l&#45;&#45;n -->
<g id="edge13" class="edge">
<title>l--n</title>
<path fill="none" stroke="#000000" d="M54.2854,-72.5708C48.6253,-61.2506 41.2784,-46.5568 35.6343,-35.2687"/>
</g>
<!-- o -->
<g id="node15" class="node">
<title>o</title>
<ellipse fill="#7fffd4" stroke="#000000" cx="99" cy="-18" rx="27" ry="18"/>
<text text-anchor="middle" x="99" y="-13.8" font-family="Times,serif" font-size="14.00" fill="#000000">1</text>
</g>
<!-- l&#45;&#45;o -->
<g id="edge14" class="edge">
<title>l--o</title>
<path fill="none" stroke="#000000" d="M71.7146,-72.5708C77.3747,-61.2506 84.7216,-46.5568 90.3657,-35.2687"/>
</g>
</g>
</svg>