<?xml version="1.0" encoding="UTF-8" standalone="no"?><!DOCTYPE svg PUBLIC "-//W3C//DTD SVG 1.1//EN" "http://www.w3.org/Graphics/SVG/1.1/DTD/svg11.dtd"><!-- Generated by graphviz version 2.40.1 (20161225.0304)
 --><!-- Title: MyGraph Pages: 1 --><svg xmlns="http://www.w3.org/2000/svg" xmlns:xlink="http://www.w3.org/1999/xlink" width="433pt" height="332pt" viewBox="0.00 0.00 433.47 332.00">
<g id="graph0" class="graph" transform="scale(1 1) rotate(0) translate(4 328)">
<title>MyGraph</title>
<polygon fill="#ffffff" stroke="transparent" points="-4,4 -4,-328 429.4738,-328 429.4738,4 -4,4"/>
<!-- a -->
<g id="node1" class="node">
<title>a</title>
<ellipse fill="none" stroke="#000000" cx="216.7358" cy="-306" rx="27" ry="18"/>
<text text-anchor="middle" x="216.7358" y="-301.8" font-family="Times,serif" font-size="14.00" fill="#0000ff">/</text>
</g>
<!-- a1 -->
<g id="node2" class="node">
<title>a1</title>
<ellipse fill="#c6e2ff" stroke="#000000" cx="102.7358" cy="-234" rx="27" ry="18"/>
<text text-anchor="middle" x="102.7358" y="-229.8" font-family="Times,serif" font-size="14.00" fill="#0000ff">bin</text>
</g>
<!-- a&#45;&#45;a1 -->
<g id="edge1" class="edge">
<title>a--a1</title>
<path fill="none" stroke="#000000" d="M196.8785,-293.4586C175.9545,-280.2434 143.2032,-259.5584 122.3655,-246.3977"/>
</g>
<!-- a2 -->
<g id="node3" class="node">
<title>a2</title>
<ellipse fill="#c6e2ff" stroke="#000000" cx="180.7358" cy="-234" rx="27" ry="18"/>
<text text-anchor="middle" x="180.7358" y="-229.8" font-family="Times,serif" font-size="14.00" fill="#0000ff">etc</text>
</g>
<!-- a&#45;&#45;a2 -->
<g id="edge2" class="edge">
<title>a--a2</title>
<path fill="none" stroke="#000000" d="M208.0212,-288.5708C202.3611,-277.2506 195.0142,-262.5568 189.3701,-251.2687"/>
</g>
<!-- a3 -->
<g id="node4" class="node">
<title>a3</title>
<ellipse fill="#c6e2ff" stroke="#000000" cx="256.7358" cy="-234" rx="27" ry="18"/>
<text text-anchor="middle" x="256.7358" y="-229.8" font-family="Times,serif" font-size="14.00" fill="#0000ff">lib</text>
</g>
<!-- a&#45;&#45;a3 -->
<g id="edge3" class="edge">
<title>a--a3</title>
<path fill="none" stroke="#000000" d="M226.2152,-288.937C232.5915,-277.4596 240.9623,-262.3922 247.3244,-250.9405"/>
</g>
<!-- a4 -->
<g id="node5" class="node">
<title>a4</title>
<ellipse fill="#c6e2ff" stroke="#000000" cx="352.7358" cy="-234" rx="32.4846" ry="18"/>
<text text-anchor="middle" x="352.7358" y="-229.8" font-family="Times,serif" font-size="14.00" fill="#0000ff">home</text>
</g>
<!-- a&#45;&#45;a4 -->
<g id="edge4" class="edge">
<title>a--a4</title>
<path fill="none" stroke="#000000" d="M237.9858,-294.75C262.6391,-281.6982 303.1822,-260.2342 328.8907,-246.6238"/>
</g>
<!-- a11 -->
<g id="node6" class="node">
<title>a11</title>
<ellipse fill="#f0f8ff" stroke="#000000" cx="28.7358" cy="-162" rx="28.9735" ry="18"/>
<text text-anchor="middle" x="28.7358" y="-157.8" font-family="Times,serif" font-size="14.00" fill="#00cd00">bash</text>
</g>
<!-- a1&#45;&#45;a11 -->
<g id="edge5" class="edge">
<title>a1--a11</title>
<path fill="none" stroke="#000000" d="M87.4029,-219.0816C74.7873,-206.807 56.983,-189.4838 44.3036,-177.147"/>
</g>
<!-- a12 -->
<g id="node7" class="node">
<title>a12</title>
<ellipse fill="#fffacd" stroke="#000000" cx="102.7358" cy="-162" rx="27" ry="18"/>
<text text-anchor="middle" x="102.7358" y="-157.8" font-family="Times,serif" font-size="14.00" fill="#00cd00">cat</text>
</g>
<!-- a1&#45;&#45;a12 -->
<g id="edge6" class="edge">
<title>a1--a12</title>
<path fill="none" stroke="#000000" d="M102.7358,-215.8314C102.7358,-205 102.7358,-191.2876 102.7358,-180.4133"/>
</g>
<!-- a21 -->
<g id="node8" class="node">
<title>a21</title>
<ellipse fill="#c6e2ff" stroke="#000000" cx="178.7358" cy="-162" rx="31.3182" ry="18"/>
<text text-anchor="middle" x="178.7358" y="-157.8" font-family="Times,serif" font-size="14.00" fill="#0000ff">init.d</text>
</g>
<!-- a2&#45;&#45;a21 -->
<g id="edge7" class="edge">
<title>a2--a21</title>
<path fill="none" stroke="#000000" d="M180.2311,-215.8314C179.9302,-205 179.5493,-191.2876 179.2472,-180.4133"/>
</g>
<!-- a31 -->
<g id="node11" class="node">
<title>a31</title>
<ellipse fill="#c6e2ff" stroke="#000000" cx="259.7358" cy="-162" rx="29.6185" ry="18"/>
<text text-anchor="middle" x="259.7358" y="-157.8" font-family="Times,serif" font-size="14.00" fill="#0000ff">udev</text>
</g>
<!-- a3&#45;&#45;a31 -->
<g id="edge10" class="edge">
<title>a3--a31</title>
<path fill="none" stroke="#000000" d="M257.4928,-215.8314C257.9441,-205 258.5154,-191.2876 258.9685,-180.4133"/>
</g>
<!-- a41 -->
<g id="node15" class="node">
<title>a41</title>
<ellipse fill="#ffec8b" stroke="#000000" cx="361.7358" cy="-162" rx="37.1367" ry="18"/>
<text text-anchor="middle" x="361.7358" y="-157.8" font-family="Times,serif" font-size="14.00" fill="#0000ff">myself</text>
</g>
<!-- a4&#45;&#45;a41 -->
<g id="edge14" class="edge">
<title>a4--a41</title>
<path fill="none" stroke="#000000" d="M355.0068,-215.8314C356.3608,-205 358.0748,-191.2876 359.4341,-180.4133"/>
</g>
<!-- a211 -->
<g id="node9" class="node">
<title>a211</title>
<ellipse fill="#f0f8ff" stroke="#000000" cx="104.7358" cy="-90" rx="27" ry="18"/>
<text text-anchor="middle" x="104.7358" y="-85.8" font-family="Times,serif" font-size="14.00" fill="#00cd00">ssh</text>
</g>
<!-- a21&#45;&#45;a211 -->
<g id="edge8" class="edge">
<title>a21--a211</title>
<path fill="none" stroke="#000000" d="M162.6789,-146.3771C150.0115,-134.0521 132.4609,-116.9759 120.0027,-104.8543"/>
</g>
<!-- a212 -->
<g id="node10" class="node">
<title>a212</title>
<ellipse fill="#fffacd" stroke="#000000" cx="177.7358" cy="-90" rx="28.3913" ry="18"/>
<text text-anchor="middle" x="177.7358" y="-85.8" font-family="Times,serif" font-size="14.00" fill="#00cd00">cron</text>
</g>
<!-- a21&#45;&#45;a212 -->
<g id="edge9" class="edge">
<title>a21--a212</title>
<path fill="none" stroke="#000000" d="M178.4834,-143.8314C178.333,-133 178.1425,-119.2876 177.9915,-108.4133"/>
</g>
<!-- a311 -->
<g id="node12" class="node">
<title>a311</title>
<ellipse fill="#c6e2ff" stroke="#000000" cx="260.7358" cy="-90" rx="37.097" ry="18"/>
<text text-anchor="middle" x="260.7358" y="-85.8" font-family="Times,serif" font-size="14.00" fill="#0000ff">rules.d</text>
</g>
<!-- a31&#45;&#45;a311 -->
<g id="edge11" class="edge">
<title>a31--a311</title>
<path fill="none" stroke="#000000" d="M259.9881,-143.8314C260.1385,-133 260.329,-119.2876 260.48,-108.4133"/>
</g>
<!-- a3111 -->
<g id="node13" class="node">
<title>a3111</title>
<ellipse fill="#eee5de" stroke="#000000" cx="204.7358" cy="-18" rx="44.6213" ry="18"/>
<text text-anchor="middle" x="204.7358" y="-13.8" font-family="Times,serif" font-size="14.00" fill="#000000">dm.rules</text>
</g>
<!-- a311&#45;&#45;a3111 -->
<g id="edge12" class="edge">
<title>a311--a3111</title>
<path fill="none" stroke="#000000" d="M247.4645,-72.937C238.6671,-61.626 227.1577,-46.8282 218.3007,-35.4407"/>
</g>
<!-- a3112 -->
<g id="node14" class="node">
<title>a3112</title>
<ellipse fill="#eee5de" stroke="#000000" cx="315.7358" cy="-18" rx="48.6739" ry="18"/>
<text text-anchor="middle" x="315.7358" y="-13.8" font-family="Times,serif" font-size="14.00" fill="#000000">crda.rules</text>
</g>
<!-- a311&#45;&#45;a3112 -->
<g id="edge13" class="edge">
<title>a311--a3112</title>
<path fill="none" stroke="#000000" d="M273.77,-72.937C282.4104,-61.626 293.7142,-46.8282 302.413,-35.4407"/>
</g>
<!-- a411 -->
<g id="node16" class="node">
<title>a411</title>
<ellipse fill="#c1ffc1" stroke="#000000" cx="370.7358" cy="-90" rx="54.9771" ry="18"/>
<text text-anchor="middle" x="370.7358" y="-85.8" font-family="Times,serif" font-size="14.00" fill="#000000">algebra.pdf</text>
</g>
<!-- a41&#45;&#45;a411 -->
<g id="edge15" class="edge">
<title>a41--a411</title>
<path fill="none" stroke="#000000" d="M364.0068,-143.8314C365.3608,-133 367.0748,-119.2876 368.4341,-108.4133"/>
</g>
</g>
</svg>