<?xml version="1.0" encoding="UTF-8" standalone="no"?><!DOCTYPE svg PUBLIC "-//W3C//DTD SVG 1.1//EN" "http://www.w3.org/Graphics/SVG/1.1/DTD/svg11.dtd"><!-- Generated by graphviz version 2.40.1 (20161225.0304)
 --><!-- Title: MyGraph Pages: 1 --><svg xmlns="http://www.w3.org/2000/svg" xmlns:xlink="http://www.w3.org/1999/xlink" width="626pt" height="351pt" viewBox="0.00 0.00 626.06 351.33">
<g id="graph0" class="graph" transform="scale(1 1) rotate(0) translate(4 347.3251)">
<title>MyGraph</title>
<polygon fill="#ffffff" stroke="transparent" points="-4,4 -4,-347.3251 622.0601,-347.3251 622.0601,4 -4,4"/>
<!-- a -->
<g id="node1" class="node">
<title>a</title>
<ellipse fill="none" stroke="#000000" cx="307.9811" cy="-313.9095" rx="48.3618" ry="29.3315"/>
<text text-anchor="middle" x="307.9811" y="-318.1095" font-family="Times,serif" font-size="14.00" fill="#000000">id: root</text>
<text text-anchor="middle" x="307.9811" y="-301.3095" font-family="Times,serif" font-size="14.00" fill="#000000">data: null</text>
</g>
<!-- b -->
<g id="node2" class="node">
<title>b</title>
<ellipse fill="none" stroke="#000000" cx="307.9811" cy="-219.0782" rx="84.4004" ry="29.3315"/>
<text text-anchor="middle" x="307.9811" y="-223.2782" font-family="Times,serif" font-size="14.00" fill="#000000">id: CEO</text>
<text text-anchor="middle" x="307.9811" y="-206.4782" font-family="Times,serif" font-size="14.00" fill="#000000">data: 'John Smith'</text>
</g>
<!-- a&#45;&#45;b -->
<g id="edge1" class="edge">
<title>a--b</title>
<path fill="none" stroke="#000000" d="M307.9811,-284.4241C307.9811,-273.0062 307.9811,-259.9615 307.9811,-248.5454"/>
</g>
<!-- c -->
<g id="node3" class="node">
<title>c</title>
<ellipse fill="none" stroke="#000000" cx="101.9811" cy="-124.2469" rx="87.9723" ry="29.3315"/>
<text text-anchor="middle" x="101.9811" y="-128.4469" font-family="Times,serif" font-size="14.00" fill="#000000">id: VP_Marketing</text>
<text text-anchor="middle" x="101.9811" y="-111.6469" font-family="Times,serif" font-size="14.00" fill="#000000">data: 'Susan Jones'</text>
</g>
<!-- b&#45;&#45;c -->
<g id="edge2" class="edge">
<title>b--c</title>
<path fill="none" stroke="#000000" d="M256.7951,-195.5149C225.4562,-181.0882 185.4641,-162.678 153.9777,-148.1833"/>
</g>
<!-- d -->
<g id="node4" class="node">
<title>d</title>
<ellipse fill="#00ff00" stroke="#000000" cx="307.9811" cy="-124.2469" rx="95.3278" ry="29.3315"/>
<text text-anchor="middle" x="307.9811" y="-128.4469" font-family="Times,serif" font-size="14.00" fill="#000000">id: VP_Sales</text>
<text text-anchor="middle" x="307.9811" y="-111.6469" font-family="Times,serif" font-size="14.00" fill="#000000">data: 'Rachel Parker'</text>
</g>
<!-- b&#45;&#45;d -->
<g id="edge3" class="edge">
<title>b--d</title>
<path fill="none" stroke="#000000" d="M307.9811,-189.5928C307.9811,-178.1749 307.9811,-165.1302 307.9811,-153.7141"/>
</g>
<!-- e -->
<g id="node5" class="node">
<title>e</title>
<ellipse fill="none" stroke="#000000" cx="513.9811" cy="-124.2469" rx="85.068" ry="29.3315"/>
<text text-anchor="middle" x="513.9811" y="-128.4469" font-family="Times,serif" font-size="14.00" fill="#000000">id: VP_Production</text>
<text text-anchor="middle" x="513.9811" y="-111.6469" font-family="Times,serif" font-size="14.00" fill="#000000">data: 'Tom Allen'</text>
</g>
<!-- b&#45;&#45;e -->
<g id="edge4" class="edge">
<title>b--e</title>
<path fill="none" stroke="#000000" d="M359.1671,-195.5149C390.7443,-180.9785 431.1069,-162.3978 462.7014,-147.8533"/>
</g>
<!-- f -->
<g id="node6" class="node">
<title>f</title>
<ellipse fill="none" stroke="#000000" cx="95.9811" cy="-29.4156" rx="95.9622" ry="29.3315"/>
<text text-anchor="middle" x="95.9811" y="-33.6156" font-family="Times,serif" font-size="14.00" fill="#000000">id: Manager1</text>
<text text-anchor="middle" x="95.9811" y="-16.8156" font-family="Times,serif" font-size="14.00" fill="#000000">data: 'Alice Johnson'</text>
</g>
<!-- c&#45;&#45;f -->
<g id="edge5" class="edge">
<title>c--f</title>
<path fill="none" stroke="#000000" d="M100.1156,-94.7615C99.3932,-83.3436 98.5678,-70.299 97.8455,-58.8828"/>
</g>
<!-- g -->
<g id="node7" class="node">
<title>g</title>
<ellipse fill="none" stroke="#000000" cx="307.9811" cy="-29.4156" rx="97.7431" ry="29.3315"/>
<text text-anchor="middle" x="307.9811" y="-33.6156" font-family="Times,serif" font-size="14.00" fill="#000000">id: Manager2</text>
<text text-anchor="middle" x="307.9811" y="-16.8156" font-family="Times,serif" font-size="14.00" fill="#000000">data: 'Michael Gross'</text>
</g>
<!-- d&#45;&#45;g -->
<g id="edge6" class="edge">
<title>d--g</title>
<path fill="none" stroke="#000000" d="M307.9811,-94.7615C307.9811,-83.3436 307.9811,-70.299 307.9811,-58.8828"/>
</g>
<!-- h -->
<g id="node8" class="node">
<title>h</title>
<ellipse fill="#add8e6" stroke="#000000" cx="520.9811" cy="-29.4156" rx="97.158" ry="29.3315"/>
<text text-anchor="middle" x="520.9811" y="-33.6156" font-family="Times,serif" font-size="14.00" fill="#000000">id: Manager3</text>
<text text-anchor="middle" x="520.9811" y="-16.8156" font-family="Times,serif" font-size="14.00" fill="#000000">data: 'Kathy Roberts'</text>
</g>
<!-- e&#45;&#45;h -->
<g id="edge7" class="edge">
<title>e--h</title>
<path fill="none" stroke="#000000" d="M516.1576,-94.7615C517.0004,-83.3436 517.9633,-70.299 518.806,-58.8828"/>
</g>
</g>
</svg>