<?xml version="1.0" encoding="UTF-8" standalone="no"?><!DOCTYPE svg PUBLIC "-//W3C//DTD SVG 1.1//EN" "http://www.w3.org/Graphics/SVG/1.1/DTD/svg11.dtd"><!-- Generated by graphviz version 2.40.1 (20161225.0304)
 --><!-- Title: MyGraph Pages: 1 --><svg xmlns="http://www.w3.org/2000/svg" xmlns:xlink="http://www.w3.org/1999/xlink" width="1441pt" height="332pt" viewBox="0.00 0.00 1440.66 332.00">
<g id="graph0" class="graph" transform="scale(1 1) rotate(0) translate(4 328)">
<title>MyGraph</title>
<polygon fill="#ffffff" stroke="transparent" points="-4,4 -4,-328 1436.6556,-328 1436.6556,4 -4,4"/>
<!-- p1 -->
<g id="node1" class="node">
<title>p1</title>
<ellipse fill="none" stroke="#000000" cx="232.121" cy="-90" rx="50.9405" ry="18"/>
<text text-anchor="middle" x="232.121" y="-85.8" font-family="Times,serif" font-size="14.00" fill="#000000">professors</text>
</g>
<!-- pr1 -->
<g id="node7" class="node">
<title>pr1</title>
<ellipse fill="none" stroke="#000000" cx="75.121" cy="-18" rx="75.2421" ry="18"/>
<text text-anchor="middle" x="75.121" y="-13.8" font-family="Times,serif" font-size="14.00" fill="#000000">Andrew Dykstra</text>
</g>
<!-- p1&#45;&#45;pr1 -->
<g id="edge11" class="edge">
<title>p1--pr1</title>
<path fill="none" stroke="#000000" d="M200.727,-75.6028C174.5077,-63.5787 137.1628,-46.4523 110.0123,-34.0011"/>
</g>
<!-- pr2 -->
<g id="node8" class="node">
<title>pr2</title>
<ellipse fill="#adff2f" stroke="#000000" cx="232.121" cy="-18" rx="63.7434" ry="18"/>
<text text-anchor="middle" x="232.121" y="-13.8" font-family="Times,serif" font-size="14.00" fill="#000000">James Burton</text>
</g>
<!-- p1&#45;&#45;pr2 -->
<g id="edge12" class="edge">
<title>p1--pr2</title>
<path fill="none" stroke="#000000" d="M232.121,-71.8314C232.121,-61 232.121,-47.2876 232.121,-36.4133"/>
</g>
<!-- s2 -->
<g id="node2" class="node">
<title>s2</title>
<ellipse fill="none" stroke="#000000" cx="380.121" cy="-90" rx="42.8751" ry="18"/>
<text text-anchor="middle" x="380.121" y="-85.8" font-family="Times,serif" font-size="14.00" fill="#000000">students</text>
</g>
<!-- st1 -->
<g id="node13" class="node">
<title>st1</title>
<ellipse fill="none" stroke="#000000" cx="342.121" cy="-18" rx="28.4088" ry="18"/>
<text text-anchor="middle" x="342.121" y="-13.8" font-family="Times,serif" font-size="14.00" fill="#000000">Paul</text>
</g>
<!-- s2&#45;&#45;st1 -->
<g id="edge13" class="edge">
<title>s2--st1</title>
<path fill="none" stroke="#000000" d="M370.7277,-72.2022C364.7496,-60.8753 357.0497,-46.2859 351.1445,-35.0972"/>
</g>
<!-- st2 -->
<g id="node14" class="node">
<title>st2</title>
<ellipse fill="#adff2f" stroke="#000000" cx="416.121" cy="-18" rx="28.3893" ry="18"/>
<text text-anchor="middle" x="416.121" y="-13.8" font-family="Times,serif" font-size="14.00" fill="#000000">Jean</text>
</g>
<!-- s2&#45;&#45;st2 -->
<g id="edge14" class="edge">
<title>s2--st2</title>
<path fill="none" stroke="#000000" d="M389.0198,-72.2022C394.6417,-60.9586 401.8708,-46.5003 407.4487,-35.3446"/>
</g>
<!-- p5 -->
<g id="node3" class="node">
<title>p5</title>
<ellipse fill="none" stroke="#000000" cx="687.121" cy="-90" rx="50.9405" ry="18"/>
<text text-anchor="middle" x="687.121" y="-85.8" font-family="Times,serif" font-size="14.00" fill="#000000">professors</text>
</g>
<!-- pr3 -->
<g id="node9" class="node">
<title>pr3</title>
<ellipse fill="#ffff00" stroke="#000000" cx="539.121" cy="-18" rx="76.5087" ry="18"/>
<text text-anchor="middle" x="539.121" y="-13.8" font-family="Times,serif" font-size="14.00" fill="#000000">Megan M. Smith</text>
</g>
<!-- p5&#45;&#45;pr3 -->
<g id="edge15" class="edge">
<title>p5--pr3</title>
<path fill="none" stroke="#000000" d="M657.1709,-75.4297C632.6761,-63.5133 598.057,-46.6716 572.6409,-34.307"/>
</g>
<!-- pr4 -->
<g id="node10" class="node">
<title>pr4</title>
<ellipse fill="none" stroke="#000000" cx="689.121" cy="-18" rx="55.0585" ry="18"/>
<text text-anchor="middle" x="689.121" y="-13.8" font-family="Times,serif" font-size="14.00" fill="#000000">Adam Lark</text>
</g>
<!-- p5&#45;&#45;pr4 -->
<g id="edge16" class="edge">
<title>p5--pr4</title>
<path fill="none" stroke="#000000" d="M687.6256,-71.8314C687.9265,-61 688.3074,-47.2876 688.6095,-36.4133"/>
</g>
<!-- s6 -->
<g id="node4" class="node">
<title>s6</title>
<ellipse fill="none" stroke="#000000" cx="798.121" cy="-90" rx="42.8751" ry="18"/>
<text text-anchor="middle" x="798.121" y="-85.8" font-family="Times,serif" font-size="14.00" fill="#000000">students</text>
</g>
<!-- st3 -->
<g id="node15" class="node">
<title>st3</title>
<ellipse fill="#adff2f" stroke="#000000" cx="797.121" cy="-18" rx="34.767" ry="18"/>
<text text-anchor="middle" x="797.121" y="-13.8" font-family="Times,serif" font-size="14.00" fill="#000000">James</text>
</g>
<!-- s6&#45;&#45;st3 -->
<g id="edge17" class="edge">
<title>s6--st3</title>
<path fill="none" stroke="#000000" d="M797.8686,-71.8314C797.7182,-61 797.5277,-47.2876 797.3767,-36.4133"/>
</g>
<!-- st4 -->
<g id="node16" class="node">
<title>st4</title>
<ellipse fill="none" stroke="#000000" cx="891.121" cy="-18" rx="41.7114" ry="18"/>
<text text-anchor="middle" x="891.121" y="-13.8" font-family="Times,serif" font-size="14.00" fill="#000000">Richard</text>
</g>
<!-- s6&#45;&#45;st4 -->
<g id="edge18" class="edge">
<title>s6--st4</title>
<path fill="none" stroke="#000000" d="M818.7607,-74.0209C834.1724,-62.0892 855.1411,-45.8553 870.5389,-33.9345"/>
</g>
<!-- p7 -->
<g id="node5" class="node">
<title>p7</title>
<ellipse fill="none" stroke="#000000" cx="1094.121" cy="-90" rx="50.9405" ry="18"/>
<text text-anchor="middle" x="1094.121" y="-85.8" font-family="Times,serif" font-size="14.00" fill="#000000">professors</text>
</g>
<!-- pr5 -->
<g id="node11" class="node">
<title>pr5</title>
<ellipse fill="#ffff00" stroke="#000000" cx="1017.121" cy="-18" rx="66.0096" ry="18"/>
<text text-anchor="middle" x="1017.121" y="-13.8" font-family="Times,serif" font-size="14.00" fill="#000000">Max Majireck</text>
</g>
<!-- p7&#45;&#45;pr5 -->
<g id="edge19" class="edge">
<title>p7--pr5</title>
<path fill="none" stroke="#000000" d="M1075.873,-72.937C1063.7765,-61.626 1047.9511,-46.8282 1035.7728,-35.4407"/>
</g>
<!-- pr6 -->
<g id="node12" class="node">
<title>pr6</title>
<ellipse fill="#ffff00" stroke="#000000" cx="1171.121" cy="-18" rx="69.5216" ry="18"/>
<text text-anchor="middle" x="1171.121" y="-13.8" font-family="Times,serif" font-size="14.00" fill="#000000">Michael Welsh</text>
</g>
<!-- p7&#45;&#45;pr6 -->
<g id="edge20" class="edge">
<title>p7--pr6</title>
<path fill="none" stroke="#000000" d="M1112.3689,-72.937C1124.4654,-61.626 1140.2908,-46.8282 1152.4691,-35.4407"/>
</g>
<!-- s8 -->
<g id="node6" class="node">
<title>s8</title>
<ellipse fill="none" stroke="#000000" cx="1296.121" cy="-90" rx="42.8751" ry="18"/>
<text text-anchor="middle" x="1296.121" y="-85.8" font-family="Times,serif" font-size="14.00" fill="#000000">students</text>
</g>
<!-- st5 -->
<g id="node17" class="node">
<title>st5</title>
<ellipse fill="none" stroke="#000000" cx="1296.121" cy="-18" rx="37.1386" ry="18"/>
<text text-anchor="middle" x="1296.121" y="-13.8" font-family="Times,serif" font-size="14.00" fill="#000000">Robert</text>
</g>
<!-- s8&#45;&#45;st5 -->
<g id="edge21" class="edge">
<title>s8--st5</title>
<path fill="none" stroke="#000000" d="M1296.121,-71.8314C1296.121,-61 1296.121,-47.2876 1296.121,-36.4133"/>
</g>
<!-- st6 -->
<g id="node18" class="node">
<title>st6</title>
<ellipse fill="none" stroke="#000000" cx="1392.121" cy="-18" rx="40.5693" ry="18"/>
<text text-anchor="middle" x="1392.121" y="-13.8" font-family="Times,serif" font-size="14.00" fill="#000000">Monica</text>
</g>
<!-- s8&#45;&#45;st6 -->
<g id="edge22" class="edge">
<title>s8--st6</title>
<path fill="none" stroke="#000000" d="M1317.4265,-74.0209C1333.4458,-62.0064 1355.2814,-45.6297 1371.2053,-33.6867"/>
</g>
<!-- college -->
<g id="node19" class="node">
<title>college</title>
<ellipse fill="none" stroke="#000000" cx="742.121" cy="-306" rx="38.842" ry="18"/>
<text text-anchor="middle" x="742.121" y="-301.8" font-family="Times,serif" font-size="14.00" fill="#000000">college</text>
</g>
<!-- areas -->
<g id="node20" class="node">
<title>areas</title>
<ellipse fill="none" stroke="#000000" cx="742.121" cy="-234" rx="30.7347" ry="18"/>
<text text-anchor="middle" x="742.121" y="-229.8" font-family="Times,serif" font-size="14.00" fill="#000000">areas</text>
</g>
<!-- college&#45;&#45;areas -->
<g id="edge1" class="edge">
<title>college--areas</title>
<path fill="none" stroke="#000000" d="M742.121,-287.8314C742.121,-277 742.121,-263.2876 742.121,-252.4133"/>
</g>
<!-- Mathematics -->
<g id="node21" class="node">
<title>Mathematics</title>
<ellipse fill="none" stroke="#000000" cx="380.121" cy="-162" rx="60.8294" ry="18"/>
<text text-anchor="middle" x="380.121" y="-157.8" font-family="Times,serif" font-size="14.00" fill="#000000">Mathematics</text>
</g>
<!-- areas&#45;&#45;Mathematics -->
<g id="edge2" class="edge">
<title>areas--Mathematics</title>
<path fill="none" stroke="#000000" d="M712.8036,-228.1689C651.1986,-215.916 507.6681,-187.3685 430.8203,-172.0838"/>
</g>
<!-- Physics -->
<g id="node22" class="node">
<title>Physics</title>
<ellipse fill="none" stroke="#000000" cx="742.121" cy="-162" rx="40.5867" ry="18"/>
<text text-anchor="middle" x="742.121" y="-157.8" font-family="Times,serif" font-size="14.00" fill="#000000">Physics</text>
</g>
<!-- areas&#45;&#45;Physics -->
<g id="edge3" class="edge">
<title>areas--Physics</title>
<path fill="none" stroke="#000000" d="M742.121,-215.8314C742.121,-205 742.121,-191.2876 742.121,-180.4133"/>
</g>
<!-- Chemistry -->
<g id="node23" class="node">
<title>Chemistry</title>
<ellipse fill="none" stroke="#000000" cx="1094.121" cy="-162" rx="51.0415" ry="18"/>
<text text-anchor="middle" x="1094.121" y="-157.8" font-family="Times,serif" font-size="14.00" fill="#000000">Chemistry</text>
</g>
<!-- areas&#45;&#45;Chemistry -->
<g id="edge4" class="edge">
<title>areas--Chemistry</title>
<path fill="none" stroke="#000000" d="M771.5268,-227.9852C833.2416,-215.3617 976.5868,-186.0411 1049.6229,-171.1019"/>
</g>
<!-- Mathematics&#45;&#45;p1 -->
<g id="edge5" class="edge">
<title>Mathematics--p1</title>
<path fill="none" stroke="#000000" d="M348.3712,-146.5542C322.8904,-134.1581 287.3586,-116.8724 262.3024,-104.6829"/>
</g>
<!-- Mathematics&#45;&#45;s2 -->
<g id="edge6" class="edge">
<title>Mathematics--s2</title>
<path fill="none" stroke="#000000" d="M380.121,-143.8314C380.121,-133 380.121,-119.2876 380.121,-108.4133"/>
</g>
<!-- Physics&#45;&#45;p5 -->
<g id="edge7" class="edge">
<title>Physics--p5</title>
<path fill="none" stroke="#000000" d="M729.0867,-144.937C720.4463,-133.626 709.1425,-118.8282 700.4437,-107.4407"/>
</g>
<!-- Physics&#45;&#45;s6 -->
<g id="edge8" class="edge">
<title>Physics--s6</title>
<path fill="none" stroke="#000000" d="M755.3922,-144.937C764.1897,-133.626 775.699,-118.8282 784.556,-107.4407"/>
</g>
<!-- Chemistry&#45;&#45;p7 -->
<g id="edge9" class="edge">
<title>Chemistry--p7</title>
<path fill="none" stroke="#000000" d="M1094.121,-143.8314C1094.121,-133 1094.121,-119.2876 1094.121,-108.4133"/>
</g>
<!-- Chemistry&#45;&#45;s8 -->
<g id="edge10" class="edge">
<title>Chemistry--s8</title>
<path fill="none" stroke="#000000" d="M1130.2345,-149.1278C1168.0237,-135.6584 1226.8287,-114.6982 1263.3274,-101.6888"/>
</g>
</g>
</svg>