<?xml version="1.0" encoding="UTF-8" standalone="no"?><!DOCTYPE svg PUBLIC "-//W3C//DTD SVG 1.1//EN" "http://www.w3.org/Graphics/SVG/1.1/DTD/svg11.dtd"><!-- Generated by graphviz version 2.40.1 (20161225.0304)
 --><!-- Title: MyGraph Pages: 1 --><svg xmlns="http://www.w3.org/2000/svg" xmlns:xlink="http://www.w3.org/1999/xlink" width="412pt" height="260pt" viewBox="0.00 0.00 411.80 260.00">
<g id="graph0" class="graph" transform="scale(1 1) rotate(0) translate(4 256)">
<title>MyGraph</title>
<polygon fill="#ffffff" stroke="transparent" points="-4,4 -4,-256 407.8015,-256 407.8015,4 -4,4"/>
<!-- a -->
<g id="node1" class="node">
<title>a</title>
<ellipse fill="none" stroke="#000000" cx="225.7348" cy="-234" rx="34.1871" ry="18"/>
<text text-anchor="middle" x="225.7348" y="-229.8" font-family="Times,serif" font-size="14.00" fill="#000000">Lucas</text>
</g>
<!-- b -->
<g id="node2" class="node">
<title>b</title>
<ellipse fill="none" stroke="#000000" cx="103.7348" cy="-162" rx="31.9012" ry="18"/>
<text text-anchor="middle" x="103.7348" y="-157.8" font-family="Times,serif" font-size="14.00" fill="#000000">Mary</text>
</g>
<!-- a&#45;&#45;b -->
<g id="edge1" class="edge">
<title>a--b</title>
<path fill="none" stroke="#000000" d="M202.7875,-220.4574C180.8378,-207.5034 147.9434,-188.0903 126.167,-175.2387"/>
</g>
<!-- c -->
<g id="node3" class="node">
<title>c</title>
<ellipse fill="none" stroke="#000000" cx="225.7348" cy="-162" rx="32.4827" ry="18"/>
<text text-anchor="middle" x="225.7348" y="-157.8" font-family="Times,serif" font-size="14.00" fill="#000000">Jason</text>
</g>
<!-- a&#45;&#45;c -->
<g id="edge2" class="edge">
<title>a--c</title>
<path fill="none" stroke="#000000" d="M225.7348,-215.8314C225.7348,-205 225.7348,-191.2876 225.7348,-180.4133"/>
</g>
<!-- d -->
<g id="node4" class="node">
<title>d</title>
<ellipse fill="none" stroke="#000000" cx="306.7348" cy="-162" rx="30.7539" ry="18"/>
<text text-anchor="middle" x="306.7348" y="-157.8" font-family="Times,serif" font-size="14.00" fill="#000000">Peter</text>
</g>
<!-- a&#45;&#45;d -->
<g id="edge3" class="edge">
<title>a--d</title>
<path fill="none" stroke="#000000" d="M243.3106,-218.3771C257.0831,-206.1348 276.1293,-189.2049 289.7484,-177.099"/>
</g>
<!-- e -->
<g id="node5" class="node">
<title>e</title>
<ellipse fill="none" stroke="#000000" cx="28.7348" cy="-90" rx="28.9715" ry="18"/>
<text text-anchor="middle" x="28.7348" y="-85.8" font-family="Times,serif" font-size="14.00" fill="#000000">Fred</text>
</g>
<!-- b&#45;&#45;e -->
<g id="edge4" class="edge">
<title>b--e</title>
<path fill="none" stroke="#000000" d="M87.4609,-146.3771C74.7086,-134.1348 57.0732,-117.2049 44.463,-105.099"/>
</g>
<!-- f -->
<g id="node6" class="node">
<title>f</title>
<ellipse fill="#ff6347" stroke="#000000" cx="103.7348" cy="-90" rx="28.3893" ry="18"/>
<text text-anchor="middle" x="103.7348" y="-85.8" font-family="Times,serif" font-size="14.00" fill="#000000">Jane</text>
</g>
<!-- b&#45;&#45;f -->
<g id="edge5" class="edge">
<title>b--f</title>
<path fill="none" stroke="#000000" d="M103.7348,-143.8314C103.7348,-133 103.7348,-119.2876 103.7348,-108.4133"/>
</g>
<!-- g -->
<g id="node7" class="node">
<title>g</title>
<ellipse fill="none" stroke="#000000" cx="179.7348" cy="-90" rx="29.6147" ry="18"/>
<text text-anchor="middle" x="179.7348" y="-85.8" font-family="Times,serif" font-size="14.00" fill="#000000">Sean</text>
</g>
<!-- c&#45;&#45;g -->
<g id="edge6" class="edge">
<title>c--g</title>
<path fill="none" stroke="#000000" d="M214.8334,-144.937C207.5007,-133.4596 197.8743,-118.3922 190.5579,-106.9405"/>
</g>
<!-- h -->
<g id="node8" class="node">
<title>h</title>
<ellipse fill="#ff6347" stroke="#000000" cx="265.7348" cy="-90" rx="37.6948" ry="18"/>
<text text-anchor="middle" x="265.7348" y="-85.8" font-family="Times,serif" font-size="14.00" fill="#000000">Jessica</text>
</g>
<!-- c&#45;&#45;h -->
<g id="edge7" class="edge">
<title>c--h</title>
<path fill="none" stroke="#000000" d="M235.4177,-144.5708C241.6604,-133.3339 249.75,-118.7727 256.0024,-107.5182"/>
</g>
<!-- i -->
<g id="node9" class="node">
<title>i</title>
<ellipse fill="none" stroke="#000000" cx="362.7348" cy="-90" rx="41.1335" ry="18"/>
<text text-anchor="middle" x="362.7348" y="-85.8" font-family="Times,serif" font-size="14.00" fill="#000000">Hannah</text>
</g>
<!-- c&#45;&#45;i -->
<g id="edge8" class="edge">
<title>c--i</title>
<path fill="none" stroke="#000000" d="M249.5984,-149.4586C273.8238,-136.7269 311.242,-117.0619 336.3401,-103.8717"/>
</g>
<!-- j -->
<g id="node10" class="node">
<title>j</title>
<ellipse fill="none" stroke="#000000" cx="180.7348" cy="-18" rx="37.1405" ry="18"/>
<text text-anchor="middle" x="180.7348" y="-13.8" font-family="Times,serif" font-size="14.00" fill="#000000">Joseph</text>
</g>
<!-- h&#45;&#45;j -->
<g id="edge9" class="edge">
<title>h--j</title>
<path fill="none" stroke="#000000" d="M246.8705,-74.0209C232.6868,-62.0064 213.3531,-45.6297 199.2539,-33.6867"/>
</g>
<!-- k -->
<g id="node11" class="node">
<title>k</title>
<ellipse fill="none" stroke="#000000" cx="265.7348" cy="-18" rx="29.0567" ry="18"/>
<text text-anchor="middle" x="265.7348" y="-13.8" font-family="Times,serif" font-size="14.00" fill="#000000">John</text>
</g>
<!-- h&#45;&#45;k -->
<g id="edge10" class="edge">
<title>h--k</title>
<path fill="none" stroke="#000000" d="M265.7348,-71.8314C265.7348,-61 265.7348,-47.2876 265.7348,-36.4133"/>
</g>
<!-- l -->
<g id="node12" class="node">
<title>l</title>
<ellipse fill="#ff6347" stroke="#000000" cx="346.7348" cy="-18" rx="33.6054" ry="18"/>
<text text-anchor="middle" x="346.7348" y="-13.8" font-family="Times,serif" font-size="14.00" fill="#000000">Jennifer</text>
</g>
<!-- h&#45;&#45;l -->
<g id="edge11" class="edge">
<title>h--l</title>
<path fill="none" stroke="#000000" d="M283.7113,-74.0209C297.3208,-61.9235 315.9058,-45.4036 329.3645,-33.4403"/>
</g>
</g>
</svg>